<svg xmlns="http://www.w3.org/2000/svg" viewBox="0 0 100 100"><rect x="4" y="4" width="92" height="92" rx="20" fill="#F3EBDD" stroke="#2A2530" stroke-width="3"/><rect x="14" y="14" width="24" height="24" fill="#FFF4D6"/><rect x="38" y="14" width="24" height="24" fill="#FFF4D6"/><rect x="62" y="14" width="24" height="24" fill="#E2DDEC"/><rect x="14" y="38" width="24" height="24" fill="#DDE7D6"/><rect x="38" y="38" width="24" height="24" fill="#DDE7D6"/><rect x="62" y="38" width="24" height="24" fill="#E2DDEC"/><rect x="14" y="62" width="24" height="24" fill="#EDD9D3"/><rect x="38" y="62" width="24" height="24" fill="#EDD9D3"/><rect x="62" y="62" width="24" height="24" fill="#E2DDEC"/><text x="26" y="28" font-size="13" fill="#2A2530" font-family="'Baloo 2',ui-rounded,system-ui,sans-serif" font-weight="800" text-anchor="middle" dominant-baseline="central">1</text><text x="50" y="28" font-size="13" fill="#2A2530" font-family="'Baloo 2',ui-rounded,system-ui,sans-serif" font-weight="800" text-anchor="middle" dominant-baseline="central">2</text><text x="74" y="28" font-size="13" fill="#2A2530" font-family="'Baloo 2',ui-rounded,system-ui,sans-serif" font-weight="800" text-anchor="middle" dominant-baseline="central">3</text><text x="26" y="52" font-size="13" fill="#2A2530" font-family="'Baloo 2',ui-rounded,system-ui,sans-serif" font-weight="800" text-anchor="middle" dominant-baseline="central">3</text><text x="50" y="52" font-size="13" fill="#2A2530" font-family="'Baloo 2',ui-rounded,system-ui,sans-serif" font-weight="800" text-anchor="middle" dominant-baseline="central">1</text><text x="74" y="52" font-size="13" fill="#2A2530" font-family="'Baloo 2',ui-rounded,system-ui,sans-serif" font-weight="800" text-anchor="middle" dominant-baseline="central">2</text><text x="26" y="76" font-size="13" fill="#2A2530" font-family="'Baloo 2',ui-rounded,system-ui,sans-serif" font-weight="800" text-anchor="middle" dominant-baseline="central">2</text><text x="50" y="76" font-size="13" fill="#2A2530" font-family="'Baloo 2',ui-rounded,system-ui,sans-serif" font-weight="800" text-anchor="middle" dominant-baseline="central">3</text><text x="74" y="76" font-size="13" fill="#2A2530" font-family="'Baloo 2',ui-rounded,system-ui,sans-serif" font-weight="800" text-anchor="middle" dominant-baseline="central">1</text><text x="21" y="19" font-size="7" fill="#2A2530" font-family="'Baloo 2',ui-rounded,system-ui,sans-serif" font-weight="800" text-anchor="middle" dominant-baseline="central">3+</text><text x="68" y="19" font-size="7" fill="#2A2530" font-family="'Baloo 2',ui-rounded,system-ui,sans-serif" font-weight="800" text-anchor="middle" dominant-baseline="central">6×</text><text x="19" y="43" font-size="7" fill="#2A2530" font-family="'Baloo 2',ui-rounded,system-ui,sans-serif" font-weight="800" text-anchor="middle" dominant-baseline="central">4+</text><text x="19" y="67" font-size="7" fill="#2A2530" font-family="'Baloo 2',ui-rounded,system-ui,sans-serif" font-weight="800" text-anchor="middle" dominant-baseline="central">1−</text><path d="M14 14H86V86H14Z M62 14V45M62 55V86 M14 38H62 M14 62H19M33 62H62" fill="none" stroke="#2A2530" stroke-width="3.2" stroke-linejoin="round" stroke-linecap="round"/><rect x="31" y="47" width="3" height="15" rx="1" fill="#B07C4F" stroke="#2A2530" stroke-width="1.2"/><rect x="60.4" y="43" width="3.2" height="14" rx="1" fill="#B07C4F" stroke="#2A2530" stroke-width="1.2"/></svg>
