<svg xmlns="http://www.w3.org/2000/svg" viewBox="0 0 100 100"><rect x="4" y="4" width="92" height="92" rx="20" fill="#F3E2C4" stroke="#2A2530" stroke-width="3"/><line x1="24" y1="26" x2="78" y2="76" stroke="#B94588" stroke-width="4.5" stroke-linecap="round"/><line x1="76" y1="24" x2="22" y2="74" stroke="#73A7AE" stroke-width="4.5" stroke-linecap="round"/><line x1="24" y1="26" x2="76" y2="24" stroke="#E16A4A" stroke-width="4.5" stroke-linecap="round"/><line x1="22" y1="74" x2="78" y2="76" stroke="#6AA673" stroke-width="4.5" stroke-linecap="round"/><circle cx="24" cy="26" r="8" fill="#B94588" stroke="#2A2530" stroke-width="2.5"/><path d="M18.4 23.6Q24 29.2 29.6 23.6M19.2 29.2Q24 24.4 28.8 29.6" fill="none" stroke="#2A2530" stroke-width="1.6" stroke-linecap="round" opacity=".55"/><circle cx="76" cy="24" r="8" fill="#73A7AE" stroke="#2A2530" stroke-width="2.5"/><path d="M70.4 21.6Q76 27.2 81.6 21.6M71.2 27.2Q76 22.4 80.8 27.6" fill="none" stroke="#2A2530" stroke-width="1.6" stroke-linecap="round" opacity=".55"/><circle cx="22" cy="74" r="8" fill="#6AA673" stroke="#2A2530" stroke-width="2.5"/><path d="M16.4 71.6Q22 77.2 27.6 71.6M17.2 77.2Q22 72.4 26.8 77.6" fill="none" stroke="#2A2530" stroke-width="1.6" stroke-linecap="round" opacity=".55"/><circle cx="78" cy="76" r="8" fill="#E16A4A" stroke="#2A2530" stroke-width="2.5"/><path d="M72.4 73.6Q78 79.2 83.6 73.6M73.2 79.2Q78 74.4 82.8 79.6" fill="none" stroke="#2A2530" stroke-width="1.6" stroke-linecap="round" opacity=".55"/><circle cx="50" cy="50" r="7" fill="none" stroke="#BD5538" stroke-width="2.5" stroke-dasharray="3 2"/></svg>
